<svg width="152" height="18" viewBox="0 0 152 18" fill="none" xmlns="http://www.w3.org/2000/svg">
<path d="M24.4782 17.4222H20.4276V0H24.4782V17.4222Z" fill="#0C0C0C"/>
<path d="M45.7334 -1.90735e-05V17.4222H41.6609L31.1858 5.70576V17.4222H27.1351V-1.90735e-05H31.1858L41.6609 11.6511V-1.90735e-05H45.7334Z" fill="#0C0C0C"/>
<path d="M69.4058 13.9378H66.5965V17.4222H62.524V13.9378H47.7805V8.38443L62.2845 -1.90735e-05H66.5965V9.86531H69.4058V13.9378ZM62.5022 4.55154L53.3338 9.84354H62.5022V4.55154Z" fill="#0C0C0C"/>
<path d="M89.8551 -1.90735e-05V4.05064H81.9934V17.4222H77.9427V4.05064H70.0809V-1.90735e-05H89.8551Z" fill="#0C0C0C"/>
<path d="M90.7045 4.05064V-1.90735e-05H109.891V4.05064H90.7045ZM90.7045 10.7582V6.68576H109.891V10.7582H90.7045ZM90.7045 17.4222V13.3715H109.891V17.4222H90.7045Z" fill="#0C0C0C"/>
<path d="M117.317 -1.90735e-05H130.797V4.05064H117.317C116.86 4.05064 116.489 4.20309 116.163 4.52976C115.836 4.85642 115.684 5.24842 115.684 5.68398V11.7164C115.684 12.1738 115.836 12.544 116.163 12.8706C116.489 13.1973 116.881 13.3498 117.317 13.3498H130.797V17.4222H117.317C115.749 17.4222 114.399 16.856 113.288 15.7453C112.177 14.6346 111.611 13.2844 111.611 11.7164V5.68398C111.611 4.11598 112.177 2.76576 113.288 1.65509C114.399 0.544427 115.749 -1.90735e-05 117.317 -1.90735e-05Z" fill="#0C0C0C"/>
<path d="M147.828 -1.90735e-05H151.9V17.4222H147.828V10.7582H136.786V17.4222H132.736V-1.90735e-05H136.786V6.66398H147.828V-1.90735e-05Z" fill="#0C0C0C"/>
<path d="M0 6.40267H5.46622C5.46622 6.40267 5.77111 11.5858 11.1067 11.8907C11.1067 15.8978 11.1067 17.4222 11.1067 17.4222C11.1067 17.4222 0.196 17.7707 0 6.40267Z" fill="#0046FF"/>
<path d="M6.272 0.0653238V5.59689H11.8253V11.368H17.4005V0.0653238H6.272Z" fill="#0046FF"/>
<path d="M5.46622 0.065331H0V5.59689H5.46622V0.065331Z" fill="#0046FF"/>
</svg>
